# AST/ASF file generated using VICON BodyLanguage
# -----------------------------------------------
:version 1.10
:name VICON
:units
  mass 1.0
  length 0.45
  angle deg
:documentation
   .ast/.asf automatically generated from VICON data using
   VICON BodyBuilder and BodyLanguage model FoxedUp or BRILLIANT.MOD
:root
   order TX TY TZ RX RY RZ
   axis XYZ
   position 0 0 0  
   orientation 0 0 0 
:bonedata
  begin
     id 1 
     name lhipjoint
     direction 0.646657 -0.683706 0.338203 
     length 2.4948 
     axis 0 0 0  XYZ
  end
  begin
     id 2 
     name lfemur
     direction 0.34202 -0.939693 0  
     length 6.79491  
     axis 0 0 20  XYZ
    dof rx ry rz
    limits (-160.0 20.0)
           (-70.0 70.0)
           (-60.0 70.0)
  end
  begin
     id 3 
     name ltibia
     direction 0.34202 -0.939693 0   
     length 7.56807   
     axis 0 0 20   XYZ
    dof rx
    limits (-10.0 170.0)
  end
  begin
     id 4 
     name lfoot
     direction 0.0679796 -0.186772 0.980048   
     length 2.53018   
     axis -90 7.62852e-016 20   XYZ
    dof rx rz
    limits (-45.0 90.0)
           (-70.0 20.0)
  end
  begin
     id 5 
     name ltoes
     direction 1.53625e-011 -4.21881e-011 1   
     length 1.26912   
     axis -90 7.62852e-016 20   XYZ
    dof rx
    limits (-90.0 20.0)
  end
  begin
     id 6 
     name rhipjoint
     direction -0.618868 -0.704065 0.348274   
     length 2.42265  
     axis 0 0 0  XYZ 
  end
  begin
     id 7 
     name rfemur
     direction -0.34202 -0.939693 0   
     length 6.73814   
     axis 0 0 -20   XYZ
    dof rx ry rz
    limits (-160.0 20.0)
           (-70.0 70.0)
           (-70.0 60.0)
  end
  begin
     id 8 
     name rtibia
     direction -0.34202 -0.939693 0   
     length 7.66799   
     axis 0 0 -20   XYZ
    dof rx
    limits (-10.0 170.0)
 end
 begin
     id 9 
     name rfoot
     direction -0.0727352 -0.199838 0.977125   
     length 2.57224  
     axis -90 -7.62852e-016 -20   XYZ
    dof rx rz
    limits (-45.0 90.0)
           (-20.0 70.0)
  end
  begin
     id 10 
     name rtoes
     direction -1.53501e-011 -4.21858e-011 1   
     length 1.28858   
     axis -90 -7.62852e-016 -20   XYZ
    dof rx
    limits (-90.0 20.0)
  end
  begin
     id 11 
     name lowerback
     direction -0.0172471 0.995767 -0.0902851   
     length 2.20206   
     axis 0 0 0   XYZ
    dof rx ry rz
    limits (-20.0 45.0)
           (-30.0 30.0)
           (-30.0 30.0)
  end
  begin
     id 12 
     name upperback
     direction -0.000110737 0.999714 0.0239043   
     length 2.19523   
     axis 0 0 0   XYZ
    dof rx ry rz
    limits (-20.0 45.0)
           (-30.0 30.0)
           (-30.0 30.0)
  end
  begin
     id 13 
     name thorax
     direction 0.00704869 0.997783 0.0661741   
     length 2.21977   
     axis 0 0 0   XYZ
    dof rx ry rz
    limits (-20.0 45.0)
           (-30.0 30.0)
           (-30.0 30.0)
  end
  begin
     id 14 
     name lowerneck
     direction -0.00407501 0.995527 0.0943846   
     length 1.83142   
     axis 0 0 0   XYZ
    dof rx ry rz
    limits (-20.0 45.0)
           (-30.0 30.0)
           (-30.0 30.0)
  end
  begin
     id 15 
     name upperneck
     direction 0.0640586 0.986486 -0.150807   
     length 1.84616   
     axis 0 0 0   XYZ
    dof rx ry rz
    limits (-20.0 45.0)
           (-30.0 30.0)
           (-30.0 30.0)
  end
  begin
     id 16
     name head
     direction 0.0188017 0.99791 -0.0618239  
     length 1.85932  
     axis 0 0 0   XYZ
    dof rx ry rz
    limits (-20.0 45.0)
           (-30.0 30.0)
           (-30.0 30.0)
  end
  begin
     id 17 
     name lclavicle
     direction 0.976074 0.206905 0.066852  
     length 3.81043  
     axis 0 0 0   XYZ
    dof ry rz
    limits (-20.0 10.0)
           (0.0 20.0)
  end
  begin
     id 18 
     name lhumerus
     direction 1 -4.48971e-011 1.86916e-027   
     length 5.37587   
     axis 180 -30 -90   XYZ
    dof rx ry rz
    limits (-60.0 90.0)
           (-90.0 90.0)
           (-90.0 90.0)
  end
  begin
     id 19
     name lradius
     direction 1 -4.48968e-011 1.69187e-027   
     length 3.35977   
     axis 180 -30 -90   XYZ
    dof rx
    limits (-10.0 170.0)
  end
  begin
     id 20
     name lwrist
     direction 1 -4.48968e-011 5.8978e-027   
     length 1.67988   
     axis -3.27506e-015 90 90   XYZ
    dof ry
    limits (-180.0 0.0)
 end
  begin
     id 21 
     name lhand
     direction 1 -4.49028e-011 1.18071e-026   
     length 0.561859   
     axis -7.52654e-015 90 90   XYZ
    dof rx rz
    limits (-90.0 90.0)
           (-45.0 45.0)
  end
  begin
     id 22 
     name lfingers
     direction 1 -4.48927e-011 2.35758e-026   
     length 0.452985   
     axis -1.50534e-014 90 90   XYZ
    dof rx
    limits (0.0 90.0)
  end
  begin
     id 23
     name lthumb
     direction 0.707107 -6.34898e-011 0.707107   
     length 0.650399   
     axis -90 45 5.69224e-014   XYZ
    dof rx rz
    limits (-45.0 45.0)
           (-45.0 45.0)
  end
  begin
     id 24 
     name rclavicle
     direction -0.988403 0.151789 0.00439714   
     length 3.6942  
     axis 0 0 0   XYZ 
    dof ry rz
    limits (-10.0 20.0)
           (-20.0 0.0)
  end
  begin
     id 25 
     name rhumerus
     direction -1 -4.48978e-011 1.62495e-027  
     length 5.22819   
     axis 180 30 90   XYZ
    dof rx ry rz
    limits (-90.0 60.0)
           (-90.0 90.0)
           (-90.0 90.0)
  end
  begin
     id 26 
     name rradius
     direction -1 -4.48961e-011 3.47796e-027   
     length 3.40764   
     axis 180 30 90   XYZ
    dof rx
    limits (-10.0 170.0)
  end
  begin
     id 27 
     name rwrist
     direction -1 -4.48949e-011 5.89602e-027   
     length 1.70382   
     axis -3.27506e-015 -90 -90   XYZ
    dof ry
    limits (-180.0 0.0)
  end
  begin
     id 28
     name rhand
     direction -1 -4.48977e-011 1.17973e-026   
     length 0.583255   
     axis -7.52654e-015 -90 -90   XYZ
    dof rx rz
    limits (-90.0 90.0)
           (-45.0 45.0)
  end
  begin
     id 29
     name rfingers
     direction -1 -4.49099e-011 2.36408e-026   
     length 0.470235   
     axis -1.50534e-014 -90 -90   XYZ
    dof rx
    limits (0.0 90.0)
  end
  begin
     id 30
     name rthumb
     direction -0.707107 -6.35011e-011 0.707107   
     length 0.675167   
     axis -90 -45 -5.69224e-014   XYZ
    dof rx rz
    limits (-45.0 45.0)
           (-45.0 45.0)
  end
:hierarchy
  begin
    root lhipjoint rhipjoint lowerback
    lhipjoint lfemur
    lfemur ltibia
    ltibia lfoot
    lfoot ltoes
    rhipjoint rfemur
    rfemur rtibia
    rtibia rfoot
    rfoot rtoes
    lowerback upperback
    upperback thorax
    thorax lowerneck lclavicle rclavicle
    lowerneck upperneck
    upperneck head
    lclavicle lhumerus
    lhumerus lradius
    lradius lwrist
    lwrist lhand lthumb
    lhand lfingers
    rclavicle rhumerus
    rhumerus rradius
    rradius rwrist
    rwrist rhand rthumb
    rhand rfingers
  end

#!OML:ASF G:\JayActor3\Patient Classification 1\Patient 1\Session 2\male.ASF
:FULLY-SPECIFIED
:DEGREES
1832
root 19.8742 16.6857 -6.37276 1333.95 -263.3 -825.181
lowerback -0.461266 -3.52716 -7.1491
upperback -4.4539 -4.78203 -0.22833
thorax -3.80561 -2.10295 3.86156
lowerneck -7.24552 -9.5895 -7.9622
upperneck 21.5763 -11.3504 -2.04827
head 8.25791 -6.09669 -0.448214
rclavicle 5.62561e-014 3.18055e-015
rhumerus -68.624 40.1591 -112.261
rradius 102.021
rwrist -6.45335
rhand -41.5357 34.1478
rfingers 7.12502
rthumb -14.4479 4.67076
lclavicle 5.62561e-014 3.18055e-015
lhumerus -47.7575 -38.8001 109.306
lradius 110.214
lwrist 23.9816
lhand -13.3069 4.27399
lfingers 7.12502
lthumb 12.7974 33.8617
rfemur -31.6431 7.09532 16.22
rtibia 27.9234
rfoot -15.4291 -4.86056
rtoes 5.96926
lfemur 21.7211 13.3127 -29.2541
ltibia -6.04305e-014
lfoot -4.29398 -6.16157
ltoes -12.7114
1833
root 19.996 16.6666 -6.37265 1334.03 -263.295 -825.209
lowerback -0.465707 -3.54403 -7.07967
upperback -4.49145 -4.80381 -0.232028
thorax -3.84516 -2.11351 3.82075
lowerneck -7.21333 -9.63308 -7.98933
upperneck 21.7329 -11.382 -2.14467
head 8.30278 -6.12256 -0.481982
rclavicle 7.55382e-015 3.57812e-015
rhumerus -68.8584 40.2447 -112.364
rradius 101.968
rwrist -6.46311
rhand -41.5303 34.1471
rfingers 7.12502
rthumb -14.4427 4.66971
lclavicle 7.55382e-015 3.57812e-015
lhumerus -48.1993 -38.6993 109.751
lradius 110.155
lwrist 23.9579
lhand -13.1863 4.3021
lfingers 7.12502
lthumb 12.9136 33.8825
rfemur -31.4588 7.14595 16.2467
rtibia 28.1475
rfoot -15.1216 -5.27112
rtoes 6.09691
lfemur 22.0619 13.1826 -29.2199
ltibia 1.01778e-013
lfoot -4.20611 -6.11943
ltoes -12.9267
1834
root 20.1204 16.6513 -6.37195 1334.14 -263.293 -825.198
lowerback -0.477895 -3.56154 -7.01638
upperback -4.52969 -4.82574 -0.232638
thorax -3.88041 -2.12404 3.78604
lowerneck -7.18647 -9.68021 -8.00949
upperneck 21.9059 -11.4162 -2.25134
head 8.35323 -6.15016 -0.521292
rclavicle -4.57205e-015 3.97569e-016
rhumerus -69.0686 40.3238 -112.446
rradius 101.898
rwrist -6.44879
rhand -41.5212 34.1559
rfingers 7.12502
rthumb -14.4339 4.67786
lclavicle -4.57205e-015 3.97569e-016
lhumerus -48.6618 -38.598 110.205
lradius 110.062
lwrist 23.9618
lhand -13.0554 4.32719
lfingers 7.12502
lthumb 13.0398 33.8996
rfemur -31.259 7.17525 16.289
rtibia 28.4703
rfoot -14.6805 -5.76865
rtoes 6.22631
lfemur 22.4198 13.0471 -29.177
ltibia 1.90833e-014
lfoot -4.06639 -6.07696
ltoes -13.2537
1835
root 20.2476 16.6415 -6.3706 1334.25 -263.302 -825.171
lowerback -0.499331 -3.57898 -6.95359
upperback -4.56935 -4.8466 -0.227188
thorax -3.91153 -2.13405 3.75728
lowerneck -7.15628 -9.72763 -8.02485
upperneck 22.0969 -11.4493 -2.36531
head 8.4085 -6.17757 -0.564059
rclavicle -3.97569e-016 -5.1684e-015
rhumerus -69.2607 40.3928 -112.512
rradius 101.806
rwrist -6.41918
rhand -41.5167 34.163
rfingers 7.12502
rthumb -14.4295 4.6846
lclavicle -3.97569e-016 -5.1684e-015
lhumerus -49.1386 -38.4927 110.669
lradius 109.924
lwrist 23.9774
lhand -12.9188 4.34907
lfingers 7.12502
lthumb 13.1715 33.913
rfemur -31.062 7.16522 16.3585
rtibia 28.8488
rfoot -14.1525 -6.23541
rtoes 6.53017
lfemur 22.7941 12.906 -29.1146
ltibia -3.18055e-014
lfoot -3.86324 -6.03315
ltoes -13.6829
1836
root 20.3777 16.6383 -6.36871 1334.31 -263.332 -825.188
lowerback -0.527612 -3.59583 -6.88104
upperback -4.60333 -4.86554 -0.211694
thorax -3.93292 -2.14394 3.7328
lowerneck -7.13519 -9.77354 -8.03684
upperneck 22.31 -11.4775 -2.48601
head 8.47232 -6.20305 -0.610351
rclavicle -2.3059e-014 1.19271e-015
rhumerus -69.4207 40.4629 -112.558
rradius 101.692
rwrist -6.3998
rhand -41.5152 34.174
rfingers 7.12502
rthumb -14.4281 4.69547
lclavicle -2.3059e-014 1.19271e-015
lhumerus -49.609 -38.3761 111.132
lradius 109.737
lwrist 23.9834
lhand -12.7729 4.37107
lfingers 7.12502
lthumb 13.3121 33.9259
rfemur -30.8727 7.13624 16.4561
rtibia 29.2348
rfoot -13.6057 -6.55358
rtoes 7.07822
lfemur 23.1878 12.7638 -29.02
ltibia 3.49861e-014
lfoot -3.58463 -5.9838
ltoes -14.1801
1837
root 20.5103 16.6421 -6.36639 1334.25 -263.384 -825.305
lowerback -0.557105 -3.61156 -6.79462
upperback -4.62996 -4.8823 -0.183953
thorax -3.94612 -2.1537 3.71294
lowerneck -7.12468 -9.81439 -8.04415
upperneck 22.5437 -11.4958 -2.61307
head 8.54422 -6.22418 -0.659791
rclavicle 1.42131e-014 1.11319e-014
rhumerus -69.5479 40.5391 -112.585
rradius 101.55
rwrist -6.3949
rhand -41.521 34.1711
rfingers 7.12502
rthumb -14.4337 4.69299
lclavicle 1.42131e-014 1.11319e-014
lhumerus -50.0673 -38.2374 111.59
lradius 109.497
lwrist 23.9676
lhand -12.6077 4.39481
lfingers 7.12502
lthumb 13.4713 33.9392
rfemur -30.6861 7.12488 16.5724
rtibia 29.5894
rfoot -13.0864 -6.63487
rtoes 7.93176
lfemur 23.6014 12.6262 -28.8862
ltibia -5.40694e-014
lfoot -3.2129 -5.92447
ltoes -14.6864
1838
root 20.6449 16.6518 -6.36371 1334.01 -263.463 -825.587
lowerback -0.588383 -3.62636 -6.69136
upperback -4.64811 -4.89694 -0.141435
thorax -3.9496 -2.16353 3.69857
lowerneck -7.12568 -9.84903 -8.05688
upperneck 22.7907 -11.5042 -2.73308
head 8.62353 -6.2405 -0.706395
rclavicle 2.70347e-014 -1.23246e-014
rhumerus -69.6324 40.6323 -112.591
rradius 101.376
rwrist -6.41404
rhand -41.5253 34.1506
rfingers 7.12502
rthumb -14.4378 4.67278
lclavicle 2.70347e-014 -1.23246e-014
lhumerus -50.508 -38.0676 112.03
lradius 109.208
lwrist 23.9277
lhand -12.4223 4.42373
lfingers 7.12502
lthumb 13.6501 33.9561
rfemur -30.495 7.16245 16.7011
rtibia 29.8923
rfoot -12.625 -6.43511
rtoes 9.13689
lfemur 24.03 12.4989 -28.7109
ltibia 6.04305e-014
lfoot -2.73958 -5.84997
ltoes -15.1783
1839
root 20.7812 16.6659 -6.36066 1333.53 -263.562 -826.093
lowerback -0.625331 -3.64049 -6.57686
upperback -4.65558 -4.90959 -0.0838371
thorax -3.93844 -2.17351 3.69272
lowerneck -7.13696 -9.87735 -8.0761
upperneck 23.0359 -11.5045 -2.84026
head 8.70537 -6.25237 -0.747726
rclavicle 1.02374e-014 -6.36111e-015
rhumerus -69.6743 40.7485 -112.578
rradius 101.173
rwrist -6.45518
rhand -41.528 34.108
rfingers 7.12502
rthumb -14.4404 4.63044
lclavicle 1.02374e-014 -6.36111e-015
lhumerus -50.9299 -37.8616 112.446
lradius 108.877
lwrist 23.8636
lhand -12.2285 4.45619
lfingers 7.12502
lthumb 13.8368 33.976
rfemur -30.2818 7.25421 16.8436
rtibia 30.1469
rfoot -12.2192 -5.9837
rtoes 10.6609
lfemur 24.47 12.3883 -28.4987
ltibia 1.90833e-014
lfoot -2.16485 -5.75276
ltoes -15.6048
1840
root 20.9189 16.6828 -6.3571 1332.81 -263.674 -826.834
lowerback -0.679964 -3.65409 -6.4584
upperback -4.65348 -4.91961 -0.0133683
thorax -3.90673 -2.18318 3.69625
lowerneck -7.15372 -9.90124 -8.10435
upperneck 23.2689 -11.501 -2.92936
head 8.78592 -6.26155 -0.781505
rclavicle 3.40916e-014 -9.14409e-015
rhumerus -69.6738 40.8845 -112.545
rradius 100.944
rwrist -6.51153
rhand -41.5195 34.0527
rfingers 7.12502
rthumb -14.4322 4.57455
lclavicle 3.40916e-014 -9.14409e-015
lhumerus -51.338 -37.6265 112.833
lradius 108.518
lwrist 23.7854
lhand -12.0419 4.49135
lfingers 7.12502
lthumb 14.0166 33.9988
rfemur -30.0375 7.38358 17.0065
rtibia 30.3718
rfoot -11.8538 -5.40461
rtoes 12.3143
lfemur 24.9109 12.2947 -28.2595
ltibia 2.22639e-014
lfoot -1.49317 -5.63123
ltoes -16.0231
1841
root 21.0582 16.7014 -6.35271 1331.9 -263.787 -827.783
lowerback -0.76581 -3.66789 -6.34928
upperback -4.6473 -4.92734 0.0648236
thorax -3.85202 -2.19211 3.71041
lowerneck -7.15422 -9.9232 -8.14469
upperneck 23.472 -11.5009 -2.9932
head 8.85591 -6.27093 -0.803787
rclavicle 2.10712e-014 2.94201e-014
rhumerus -69.6507 41.026 -112.502
rradius 100.705
rwrist -6.56369
rhand -41.4949 33.9941
rfingers 7.12502
rthumb -14.4085 4.51422
lclavicle 2.10712e-014 2.94201e-014
lhumerus -51.7451 -37.3678 113.193
lradius 108.146
lwrist 23.7046
lhand -11.8705 4.52444
lfingers 7.12502
lthumb 14.1818 34.0203
rfemur -29.7615 7.52673 17.1904
rtibia 30.5901
rfoot -11.5163 -4.84287
rtoes 13.8907
lfemur 25.3392 12.2151 -28.0081
ltibia -9.54166e-015
lfoot -0.726906 -5.48492
ltoes -16.3973
1842
root 21.1993 16.7212 -6.34735 1330.86 -263.896 -828.866
lowerback -0.893657 -3.68432 -6.25558
upperback -4.63786 -4.93546 0.147261
thorax -3.76867 -2.20157 3.7342
lowerneck -7.14354 -9.9461 -8.1922
upperneck 23.6485 -11.5069 -3.04046
head 8.91649 -6.28212 -0.818752
rclavicle -5.34731e-014 -1.82882e-014
rhumerus -69.6161 41.1682 -112.452
rradius 100.473
rwrist -6.60774
rhand -41.4616 33.9338
rfingers 7.12502
rthumb -14.3764 4.45162
lclavicle -5.34731e-014 -1.82882e-014
lhumerus -52.1534 -37.0937 113.522
lradius 107.773
lwrist 23.6373
lhand -11.7312 4.54213
lfingers 7.12502
lthumb 14.316 34.0286
rfemur -29.4574 7.67394 17.3904
rtibia 30.8159
rfoot -11.2318 -4.38942
rtoes 15.1886
lfemur 25.7454 12.1423 -27.7551
ltibia -6.67916e-014
lfoot 0.130612 -5.31285
ltoes -16.7456
1843
root 21.3422 16.7421 -6.34087 1329.82 -263.995 -829.979
lowerback -1.06344 -3.70407 -6.18222
upperback -4.63081 -4.94523 0.228336
thorax -3.66265 -2.21166 3.76478
lowerneck -7.1143 -9.97223 -8.2456
upperneck 23.8078 -11.5215 -3.07527
head 8.96926 -6.29667 -0.828108
rclavicle 3.81667e-014 -1.59028e-015
rhumerus -69.5891 41.2984 -112.41
rradius 100.262
rwrist -6.64142
rhand -41.4235 33.8848
rfingers 7.12502
rthumb -14.3397 4.40002
lclavicle 3.81667e-014 -1.59028e-015
lhumerus -52.573 -36.8119 113.827
lradius 107.409
lwrist 23.6014
lhand -11.6254 4.54164
lfingers 7.12502
lthumb 14.418 34.0208
rfemur -29.1307 7.81801 17.5955
rtibia 31.0479
rfoot -11.0361 -4.05102
rtoes 16.2447
lfemur 26.1221 12.0669 -27.5089
ltibia 3.18055e-014
lfoot 1.0772 -5.11552
ltoes -17.0813
1844
root 21.4868 16.764 -6.33331 1328.89 -264.088 -830.986
lowerback -1.26266 -3.73061 -6.12682
upperback -4.63078 -4.96237 0.305099
thorax -3.54572 -2.22484 3.79886
lowerneck -7.0705 -10.0024 -8.30755
upperneck 23.9627 -11.5435 -3.10242
head 9.01925 -6.31469 -0.833584
rclavicle 3.62782e-014 1.74931e-014
rhumerus -69.5814 41.415 -112.386
rradius 100.085
rwrist -6.68189
rhand -41.3746 33.8709
rfingers 7.12502
rthumb -14.2926 4.38284
lclavicle 3.62782e-014 1.74931e-014
lhumerus -53.0043 -36.5221 114.103
lradius 107.065
lwrist 23.627
lhand -11.5487 4.53796
lfingers 7.12502
lthumb 14.4918 34.0119
rfemur -28.7819 7.95091 17.7984
rtibia 31.2714
rfoot -10.9428 -3.79469
rtoes 17.1613
lfemur 26.4678 11.9764 -27.2734
ltibia 2.8625e-014
lfoot 2.11226 -4.88786
ltoes -17.3931
1845
root 21.6327 16.7868 -6.32469 1328.22 -264.177 -831.745
lowerback -1.47376 -3.76663 -6.09016
upperback -4.63934 -4.99188 0.374447
thorax -3.42908 -2.24321 3.83495
lowerneck -7.0202 -10.0338 -8.37171
upperneck 24.1319 -11.566 -3.13341
head 9.0732 -6.33351 -0.840245
rclavicle 1.09332e-015 -1.19271e-014
rhumerus -69.6039 41.5181 -112.391
rradius 99.9515
rwrist -6.73802
rhand -41.3279 33.8907
rfingers 7.12502
rthumb -14.2476 4.3994
lclavicle 1.09332e-015 -1.19271e-014
lhumerus -53.453 -36.2269 114.353
lradius 106.749
lwrist 23.723
lhand -11.4949 4.53679
lfingers 7.12502
lthumb 14.5437 34.007
rfemur -28.4021 8.07385 17.9911
rtibia 31.4681
rfoot -10.934 -3.58991
rtoes 17.9794
lfemur 26.7885 11.8592 -27.05
ltibia -6.04305e-014
lfoot 3.24405 -4.62202
ltoes -17.6242
1846
root 21.7795 16.8107 -6.31509 1327.98 -264.265 -832.079
lowerback -1.6814 -3.8144 -6.07569
upperback -4.65586 -5.03794 0.432657
thorax -3.32031 -2.26862 3.87206
lowerneck -6.96173 -10.0668 -8.44007
upperneck 24.3177 -11.5893 -3.16669
head 9.13187 -6.35332 -0.847327
rclavicle -3.73715e-014 7.95139e-016
rhumerus -69.6543 41.6087 -112.427
rradius 99.8632
rwrist -6.80913
rhand -41.2828 33.9427
rfingers 7.12502
rthumb -14.2042 4.44836
lclavicle -3.73715e-014 7.95139e-016
lhumerus -53.9124 -35.9367 114.572
lradius 106.459
lwrist 23.8934
lhand -11.4629 4.54537
lfingers 7.12502
lthumb 14.5745 34.0133
rfemur -27.9894 8.18201 18.1642
rtibia 31.6242
rfoot -10.9885 -3.42449
rtoes 18.733
lfemur 27.0881 11.7016 -26.8444
ltibia -5.725e-014
lfoot 4.47368 -4.30982
ltoes -17.7307
